<svg id="Layer_1" xmlns="http://www.w3.org/2000/svg" viewBox="0 0 261.9 169.9"><style>.st0{fill:#3ba30d}</style><path class="st0" d="M176.9 0l-23 23-23-23-10.3 10.3 74 74.7-40.7 40.7-12.4-12.4L169.8 85 84.9 0 0 84.9l84.9 84.9 23-23 23 23 10.5-10.5-74.2-74.4 40.7-40.7 12.4 12.4L92 84.9l84.9 84.9 84.9-84.9L176.9 0zM46 84.9l51.3 51.3-12.4 12.4-63.7-63.7 63.7-63.7 12.4 12.4L46 84.9zm67.2 0l17.7-17.7 17.7 17.7-17.7 17.7-17.7-17.7zm51.3 51.4L215.8 85l-51.3-51.3 12.4-12.4L240.6 85l-63.7 63.7-12.4-12.4z" id="Objects"/></svg>