<svg id="Layer_1" xmlns="http://www.w3.org/2000/svg" viewBox="0 0 1920 1080"><style>.st0,.st1{fill:#fff}.st1{opacity:.1}</style><path class="st0" d="M969.5 58c0-5.2-4.2-9.3-9.3-9.3-5.2 0-9.3 4.2-9.3 9.3s4.2 9.3 9.3 9.3c5.2 0 9.3-4.2 9.3-9.3zm-14.9 0c0-3.1 2.5-5.6 5.6-5.6 3.1 0 5.6 2.5 5.6 5.6 0 3.1-2.5 5.6-5.6 5.6-3.1 0-5.6-2.6-5.6-5.6zM281.4 87.5v844c0 2.6 2.1 4.7 4.7 4.7h1350.5c2.6 0 4.7-2.1 4.7-4.7v-844c0-2.6-2.1-4.7-4.7-4.7H286.1c-2.6 0-4.7 2.1-4.7 4.7zm1355.2 844H286.1v-844h1350.5v844zM662.5 1046.7c-2-1.3-7.2-1.8-11.1-1.8H650c-7.7.2-8.2 1.9-8.5 2.8-.2.8-.1 1.9 1.1 2.6 2 1.3 7.2 1.8 11.1 1.8h1.4c7.7-.2 8.2-1.9 8.5-2.8.2-.7 0-1.8-1.1-2.6zM1261.4 1044.9h-1.4c-3.9 0-9.2.5-11.1 1.8-1.1.8-1.3 1.9-1.1 2.6.2.8.7 2.5 8.5 2.8h1.4c3.9 0 9.2-.5 11.1-1.8 1.1-.8 1.3-1.9 1.1-2.6-.3-.9-.8-2.6-8.5-2.8z"/><path class="st0" d="M211.5 1022.8c-1.5-5-2.3-10.2-2.3-15.7V67.4c0-30 24.4-54.4 54.4-54.4h1393.6c30 0 54.4 24.4 54.4 54.4v939.7c0 5.4-.8 10.7-2.3 15.7h3.9c1.4-5 2.2-10.2 2.2-15.7V67.4c0-32.1-26.1-58.1-58.1-58.1H263.6c-32.1 0-58.1 26.1-58.1 58.1v939.7c0 5.4.8 10.7 2.2 15.7h3.8z"/><path class="st0" d="M1701.4 1022.8h3c1.6-4.9 2.5-10.2 2.5-15.7V67.4c0-27.4-22.3-49.7-49.7-49.7H263.6c-27.4 0-49.7 22.3-49.7 49.7v939.7c0 5.5.9 10.7 2.5 15.7h3c-1.7-4.9-2.7-10.2-2.7-15.7V67.4c0-25.9 21-46.9 46.9-46.9h1393.6c25.9 0 46.9 21 46.9 46.9v939.7c0 5.5-1 10.8-2.7 15.7z"/><path class="st0" d="M1695.6 1008.2c0 10-6.1 14.5-11.7 14.5h-.3 10c3.4-3 5.8-7.8 5.8-14.5V67.4c0-23.3-18.9-42.2-42.2-42.2H263.6c-23.3 0-42.2 18.9-42.2 42.2V1008.2c0 6.8 2.5 11.6 5.9 14.5h9.4-.1c-4.4 0-11.5-3.9-11.5-14.5V67.4c0-21.2 17.2-38.5 38.5-38.5h1393.6c21.2 0 38.5 17.2 38.5 38.5V1008.2zM1884 1030.8v-4.2c0-2.1-1.7-3.8-3.8-3.8h-772.6c-.9 0-1.7.3-2.3.8H804.1c-.6-.5-1.5-.8-2.3-.8H40.1c-2.1 0-3.8 1.7-3.8 3.8v3.3c0 1.5.6 3 1.9 4.3 1.3 1.4 5.4 5.7 34.1 12.1 17.9 4 41.4 8 68.1 11.6 60.8 8.2 127.3 12.9 182.6 12.9h1233.4c113.9 0 192.6-8.1 238.6-14.9 45.4-6.7 81.2-15.6 87.3-21.6l.1-.1c.1-.1.1-.2.2-.2l.1-.1c.9-1 1.3-2 1.3-3.1zm-3.8 0c0 .2-.2.5-.4.8h-768.4v-5h768.9c-.1 0-.1 3.3-.1 4.2zm-772.6-3.4v4.2c-1.8 1.8-4.8 3.4-10.3 3.4H995 814.5c-5.5 0-10.9-1.5-12.7-3.4v-4.2h305.8zm-1067.5-.8H798v5H41c-.6-.6-.8-1.1-.8-1.7-.1-1.1-.1-3.3-.1-3.3zm1516.4 40.4H323.1c-110.8 0-243-18.5-275.5-31.7h-.1 753c3.5 2.3 9.4 3.4 14 3.4h282.8c5 0 8.8-1.1 11.7-3.4h763.4c-28 10.5-131.3 31.7-315.9 31.7z"/><path class="st1" d="M286.1 87.5h1350.5v844H286.1z"/></svg>