<svg id="Layer_1" xmlns="http://www.w3.org/2000/svg" viewBox="0 0 1920 1080"><style>.st0,.st1{fill:#fff}.st1{opacity:.1}</style><path class="st0" d="M1325.1 22c-8.5-8.4-20-13.1-32.2-13.1h-667c-11.6 0-22.5 4.6-30.9 13.1-8.4 8.5-13 19.7-13 31.5v980c0 24.6 21.6 44.6 48.1 44.6h660.2c12.8 0 24.8-4.6 33.7-13 9.2-8.7 14.3-20.6 14.3-33.7V53.6c0-12-4.6-23.2-13.2-31.6zm9.8 1009.5c0 25.5-20.4 43.3-44.6 43.3H630.1c-24.7 0-44.7-18.5-44.7-41.2v-980c0-22.8 18.5-41.2 40.4-41.2h667c23.6 0 42 18.5 42 41.2v977.9z"/><path class="st0" d="M1292.9 17.5h-667c-9.3 0-18.1 3.8-24.8 10.6-6.8 6.9-10.5 16-10.5 25.6v980c0 19.9 17.8 36.1 39.6 36.1h660.2c10.7 0 20.6-3.8 27.9-10.7 7.5-7 11.6-16.8 11.6-27.5v-978c0-9.7-3.8-18.7-10.7-25.5-6.9-6.9-16.3-10.6-26.3-10.6zm33.6 1014c0 9.7-3.7 18.6-10.5 25-6.7 6.3-15.8 9.8-25.6 9.8H630.2c-20 0-36.2-14.7-36.2-32.7v-980c0-8.7 3.4-17 9.5-23.2 6.1-6.2 14-9.6 22.4-9.6h667c9.1 0 17.6 3.4 23.9 9.6 6.2 6.1 9.7 14.4 9.7 23.1v978z"/><path class="st0" d="M1286.3 104.5H634.4c-2.3 0-4.2 1.9-4.2 4.2v869.2c0 2.3 1.9 4.2 4.2 4.2h651.9c2.3 0 4.2-1.9 4.2-4.2V108.7c.1-2.3-1.8-4.2-4.2-4.2zm0 873.4H634.4V108.7h651.9v869.2zM959.9 67.4c3.5 0 6.4-2.8 6.4-6.4 0-3.5-2.8-6.4-6.4-6.4-3.5 0-6.4 2.8-6.4 6.4.1 3.5 2.9 6.4 6.4 6.4zm0-10.2c2.1 0 3.8 1.7 3.8 3.8 0 2.1-1.7 3.8-3.8 3.8-2.1 0-3.8-1.7-3.8-3.8 0-2.1 1.7-3.8 3.8-3.8z"/><ellipse class="st0" cx="941.7" cy="61.2" rx="3.4" ry="3.4"/><path class="st0" d="M959.9 1003.6c-14.1 0-25.5 11.4-25.5 25.5v.6c.3 13.8 11.6 24.9 25.5 24.9 14.1 0 25.5-11.4 25.5-25.5-.1-14.1-11.5-25.5-25.5-25.5zm0 47.5c-5.8 0-11.3-2.2-15.4-6.3s-6.5-9.5-6.6-15.3v-.2-.3c0-12.2 9.9-22.1 22.1-22.1 12.2 0 22.1 9.9 22.1 22.1s-10 22.1-22.2 22.1z"/><path class="st0" d="M964.8 1019.1h-10.1c-2.4 0-4.3 1.9-4.3 4.3v10.1c0 2.4 1.9 4.3 4.3 4.3h10.1c2.4 0 4.3-1.9 4.3-4.3v-10.1c0-2.4-1.9-4.3-4.3-4.3zm.9 14.3c0 .5-.4.9-.9.9h-10.1c-.5 0-.9-.4-.9-.9v-10.1c0-.5.4-.9.9-.9h10.1c.5 0 .9.4.9.9v10.1z"/><path class="st1" d="M634.4 108.7h651.9v869.2H634.4z"/></svg>