<svg id="Layer_1" xmlns="http://www.w3.org/2000/svg" viewBox="0 0 1920 1080"><style>.st0,.st1{fill:#fff}.st1{opacity:.1}</style><path class="st0" d="M1591.1 4.8H329.2c-21.6 0-39.1 17.5-39.1 39.1v847.2c0 21.6 17.5 39.1 39.1 39.1h476.3c-1 16.6-3 39.3-5.5 60.9-6.7 58.4-12 63.5-13 63.9-4.8 2.1-19.4 4.3-32.3 6.3-23.1 3.5-26.3 4.3-26.3 6.5v3.3c0 .8 0 1.5 4.3 2.1v3.9c0 2.5 73.8 2.9 140.5 2.9 33.8 0 65.8-.1 85.5-.1 19.7 0 51.7.1 85.5.1 66.8 0 140.5-.4 140.5-2.9v-3.9c4.3-.6 4.3-1.2 4.3-2.1v-3.3c0-2.2-3.2-3-26.3-6.5-12.9-2-27.5-4.2-32.3-6.3-1-.4-6.2-5.5-13-63.9-2.5-21.6-4.4-44.3-5.5-60.9H1591c21.6 0 39.1-17.5 39.1-39.1V43.9c.2-21.6-17.4-39.1-39-39.1zm-408.2 1071c-2.9.5-13.1 1.3-46.5 1.8-22.4.3-52.5.5-92.1.5-20.5 0-39.9 0-57.1-.1h-56.8c-17.2 0-36.6.1-57.1.1-39.6 0-69.7-.2-92.1-.5-33.4-.5-43.6-1.3-46.5-1.8v-2.4c6 .6 17.8 1 41.1 1.4 23.1.4 54.8.5 96.8.5 20.8 0 40.5 0 57.9-.1h56.6c17.4 0 37.1.1 57.9.1 42.1 0 73.8-.2 96.8-.5 23.2-.4 35.1-.8 41.1-1.4v2.4zm-67.9-84.4c7.2 62.8 12.7 65.2 14.5 66 5.1 2.2 19.3 4.4 33 6.5 9.8 1.5 21.8 3.3 24.1 4.5v2.1c-6.1 1.6-53.7 2.4-141.6 2.4-20.8 0-40.5 0-57.9-.1h-56.6c-17.4 0-37.1.1-57.9.1-87.9 0-135.5-.8-141.6-2.4v-2.1c2.3-1.2 14.4-3 24.1-4.5 13.7-2.1 27.9-4.3 33-6.5 1.8-.8 7.2-3.2 14.5-66 2.5-21.7 4.5-44.5 5.5-61.1h301.4c1 16.6 3 39.4 5.5 61.1zm512.7-100.3c0 20.2-16.4 36.6-36.6 36.6H329.2c-20.2 0-36.6-16.4-36.6-36.6V809h1335.1v82.1zm-1335-84.7V43.9c0-20.2 16.4-36.6 36.6-36.6h1261.9c20.2 0 36.6 16.4 36.6 36.6v762.5H292.7z"/><path class="st0" d="M1572.8 58.4H347.5c-2.1 0-3.8 1.7-3.8 3.8v689.2c0 2.1 1.7 3.8 3.8 3.8h1225.3c2.1 0 3.8-1.7 3.8-3.8V62.2c.1-2.1-1.7-3.8-3.8-3.8zm0 693.1H347.5V62.2h1225.3v689.3zM960.2 38.1c2.8 0 5.1-2.3 5.1-5.1s-2.3-5.1-5.1-5.1-5.1 2.3-5.1 5.1 2.3 5.1 5.1 5.1zm0-7.7c1.4 0 2.6 1.1 2.6 2.6 0 1.4-1.1 2.6-2.6 2.6-1.4 0-2.6-1.1-2.6-2.6 0-1.4 1.2-2.6 2.6-2.6z"/><path class="st1" d="M347.5 62.2h1225.3v689.2H347.5z"/></svg>