<svg xmlns="http://www.w3.org/2000/svg" viewBox="0 0 2998.2 2984.9"><style>.st0{fill:none;stroke:#000200;stroke-miterlimit:10}</style><path class="st0" d="M2162.9 903.4l261.9-734.3 426.2 47.4 71.4 467.1z" id="Layer_39"/><path class="st0" d="M2866.2 1034.9l-441.4-865.8-452.6 149.3-308.3 389.2z" id="Layer_40"/><path class="st0" d="M2162.9 903.4l363.3 406 340-274.5z" id="Layer_15"/><path class="st0" d="M1891 1242.6l271.9-339.2-499-195.8-369.1-233-160.9 587.1z" id="Layer_16"/><path class="st0" d="M1547 1160.4l-546.2-618.7 971.4-223.3z" id="Layer_17"/><path class="st0" d="M1619.9 72.3l352.3 246.1-81.2 924.2-728.5 259.8-563.3-789.2 401.6-171.5z" id="Layer_18"/><path class="st0" d="M1211.1 779.9l-611.9-66.7L68.3 362 730.2 74.9 918.6 1.1z" id="Layer_19"/><path class="st0" d="M599.2 713.2l131-638.3 270.6 466.8 133.1 520-407.2 417z" id="Layer_20"/><path class="st0" d="M68.3 362l127.3 763.7 271.3 436.9 132.3-849.4-204.6 210.4z" id="Layer_21"/><path class="st0" d="M599.2 713.2l-248.3 663.2 811.6 126-28.6-440.7z" id="Layer_22"/><path class="st0" d="M394.6 923.6L1.1 1323.2l163.8 704 302-464.6z" id="Layer_23"/><path class="st0" d="M466.9 1562.6l15.8 1321.3 464.4-336.6 316.4-849.4-536.8-219.2z" id="Layer_24"/><path class="st0" d="M164.9 2027.2L11.5 2568.3l172.3 386.6 294.3-453.7 785.4-803.3z" id="Layer_25"/><path class="st0" d="M1162.5 1502.4l862.3-73.6 68.6 665-729.8-204.2z" id="Layer_26"/><path class="st0" d="M1363.6 1889.6l-416.5 657.7 579.5-32.8 412.6-277.3z" id="Layer_27"/><path class="st0" d="M1939.2 2237.2l154.2-143.4 362.4 408.8z" id="Layer_28"/><path class="st0" d="M1526.6 2514.5l499.7 194.5 429.5-206.4z" id="Layer_29"/><path class="st0" d="M1939.2 2237.2l87.1 471.8 273.4 259.9z" id="Layer_30"/><path class="st0" d="M947.1 2547.3l466.9 354.8 885.7 66.8z" id="Layer_31"/><path class="st0" d="M482.7 2883.9l605 98.1 326.3-79.9z" id="Layer_32"/><path class="st0" d="M2299.7 2968.9l156.1-466.3 541.3-78.3z" id="Layer_33"/><path class="st0" d="M2859.4 2005.3l-403.6 497.3 425.2 282.8 116.1-361.1z" id="Layer_34"/><path class="st0" d="M2526.2 1309.4l-70.4 1193.2-95.8-654.8z" id="Layer_35"/><path class="st0" d="M2526.2 1309.4l333.2 695.9 121.3-499.9z" id="Layer_36"/><path class="st0" d="M2093.4 2093.8l766-88.5-499.4-157.5z" id="Layer_37"/><path class="st0" d="M2360 1847.8l-335.2-419-133.8-186.2 826.3-499.7 263.4 762.5z" id="Layer_38"/></svg>