<?xml version="1.0" encoding="utf-8"?>
<!-- Generator: Adobe Illustrator 21.0.2, SVG Export Plug-In . SVG Version: 6.00 Build 0)  -->
<svg version="1.1" xmlns="http://www.w3.org/2000/svg" xmlns:xlink="http://www.w3.org/1999/xlink" x="0px" y="0px"
	 viewBox="0 0 261.9 169.9" style="enable-background:new 0 0 261.9 169.9;" xml:space="preserve">
<style type="text/css">
	.st0{fill:#333333;}
</style>
<g id="Background">
</g>
<g id="Objects">
	<path class="st0" d="M176.9,0l-23,23l-23-23l-10.3,10.3l74,74.7l-40.7,40.7l-12.4-12.4l28.3-28.3L84.9,0L0,84.9l84.9,84.9l23-23
		l23,23l10.5-10.5L67.2,84.9l40.7-40.7l12.4,12.4L92,84.9l84.9,84.9l84.9-84.9L176.9,0z M46,84.9l51.3,51.3l-12.4,12.4L21.2,84.9
		l63.7-63.7l12.4,12.4L46,84.9z M113.2,84.9l17.7-17.7l17.7,17.7l-17.7,17.7L113.2,84.9z M164.5,136.3l51.3-51.3l-51.3-51.3
		l12.4-12.4l63.7,63.7l-63.7,63.7L164.5,136.3z"/>
	<g>
	</g>
	<g>
	</g>
	<g>
	</g>
	<g>
	</g>
	<g>
	</g>
	<g>
	</g>
</g>
</svg>
