<?xml version="1.0" encoding="utf-8"?>
<!-- Generator: Adobe Illustrator 21.1.0, SVG Export Plug-In . SVG Version: 6.00 Build 0)  -->
<svg version="1.1" id="Layer_1" xmlns="http://www.w3.org/2000/svg" xmlns:xlink="http://www.w3.org/1999/xlink" x="0px" y="0px"
	 viewBox="0 0 1920 1080" style="enable-background:new 0 0 1920 1080;" xml:space="preserve">
<style type="text/css">
	.st0{fill:#FFFFFF;}
	.st1{opacity:0.1;fill:#FFFFFF;}
</style>
<g>
	<g>
		<path class="st0" d="M969.5,58c0-5.2-4.2-9.3-9.3-9.3c-5.2,0-9.3,4.2-9.3,9.3s4.2,9.3,9.3,9.3C965.4,67.3,969.5,63.1,969.5,58z
			 M954.6,58c0-3.1,2.5-5.6,5.6-5.6c3.1,0,5.6,2.5,5.6,5.6c0,3.1-2.5,5.6-5.6,5.6C957.1,63.6,954.6,61,954.6,58z"/>
		<path class="st0" d="M281.4,87.5v844c0,2.6,2.1,4.7,4.7,4.7h1350.5c2.6,0,4.7-2.1,4.7-4.7v-844c0-2.6-2.1-4.7-4.7-4.7H286.1
			C283.5,82.8,281.4,84.9,281.4,87.5z M1636.6,931.5H286.1v-844h1350.5V931.5z"/>
		<path class="st0" d="M662.5,1046.7c-2-1.3-7.2-1.8-11.1-1.8c-0.5,0-0.9,0-1.4,0c-7.7,0.2-8.2,1.9-8.5,2.8
			c-0.2,0.8-0.1,1.9,1.1,2.6c2,1.3,7.2,1.8,11.1,1.8c0.5,0,0.9,0,1.4,0c7.7-0.2,8.2-1.9,8.5-2.8
			C663.8,1048.6,663.6,1047.5,662.5,1046.7z"/>
		<path class="st0" d="M1261.4,1044.9c-0.5,0-0.9,0-1.4,0c-3.9,0-9.2,0.5-11.1,1.8c-1.1,0.8-1.3,1.9-1.1,2.6
			c0.2,0.8,0.7,2.5,8.5,2.8c0.5,0,0.9,0,1.4,0c0,0,0,0,0,0c3.9,0,9.2-0.5,11.1-1.8c1.1-0.8,1.3-1.9,1.1-2.6
			C1269.6,1046.8,1269.1,1045.1,1261.4,1044.9z"/>
		<path class="st0" d="M211.5,1022.8c-1.5-5-2.3-10.2-2.3-15.7V67.4c0-30,24.4-54.4,54.4-54.4h1393.6c30,0,54.4,24.4,54.4,54.4
			v939.7c0,5.4-0.8,10.7-2.3,15.7h3.9c1.4-5,2.2-10.2,2.2-15.7V67.4c0-32.1-26.1-58.1-58.1-58.1H263.6c-32.1,0-58.1,26.1-58.1,58.1
			v939.7c0,5.4,0.8,10.7,2.2,15.7H211.5z"/>
		<path class="st0" d="M1701.4,1022.8h3c1.6-4.9,2.5-10.2,2.5-15.7V67.4c0-27.4-22.3-49.7-49.7-49.7H263.6
			c-27.4,0-49.7,22.3-49.7,49.7v939.7c0,5.5,0.9,10.7,2.5,15.7h3c-1.7-4.9-2.7-10.2-2.7-15.7V67.4c0-25.9,21-46.9,46.9-46.9h1393.6
			c25.9,0,46.9,21,46.9,46.9v939.7C1704.1,1012.6,1703.1,1017.9,1701.4,1022.8z"/>
		<path class="st0" d="M1695.6,1008.2c0,10-6.1,14.5-11.7,14.5h-0.3v0h10c3.4-3,5.8-7.8,5.8-14.5v-22.6V67.4
			c0-23.3-18.9-42.2-42.2-42.2H263.6c-23.3,0-42.2,18.9-42.2,42.2v918.2v22.6c0,6.8,2.5,11.6,5.9,14.5h9.4v0h-0.1
			c-4.4,0-11.5-3.9-11.5-14.5v-22.6V67.4c0-21.2,17.2-38.5,38.5-38.5h1393.6c21.2,0,38.5,17.2,38.5,38.5v918.2V1008.2z"/>
		<path class="st0" d="M1884,1030.8v-4.2c0-2.1-1.7-3.8-3.8-3.8h-772.6c-0.9,0-1.7,0.3-2.3,0.8H804.1c-0.6-0.5-1.5-0.8-2.3-0.8H40.1
			c-2.1,0-3.8,1.7-3.8,3.8v3.3c0,1.5,0.6,3,1.9,4.3l0,0c1.3,1.4,5.4,5.7,34.1,12.1c17.9,4,41.4,8,68.1,11.6
			c60.8,8.2,127.3,12.9,182.6,12.9h1233.4c113.9,0,192.6-8.1,238.6-14.9c45.4-6.7,81.2-15.6,87.3-21.6c0,0,0,0,0.1-0.1c0,0,0,0,0,0
			c0.1-0.1,0.1-0.2,0.2-0.2c0,0,0.1-0.1,0.1-0.1C1883.6,1032.9,1884,1031.9,1884,1030.8z M1880.2,1030.8c0,0.2-0.2,0.5-0.4,0.8
			h-768.4v-4.2v-0.8h768.9C1880.2,1026.6,1880.2,1029.9,1880.2,1030.8z M1107.6,1027.4c0,1.5,0,2.2,0,4.2c-1.8,1.8-4.8,3.4-10.3,3.4
			c-4.5,0-56.3,0-102.3,0c0,0-39,0-80.7,0c-46,0-95.3,0-99.8,0c-5.5,0-10.9-1.5-12.7-3.4v0c0-2.2,0-3.1,0-4.2H1107.6z M40.1,1026.6
			H798v0.8v4.2H41c-0.6-0.6-0.8-1.1-0.8-1.7C40.1,1028.8,40.1,1026.6,40.1,1026.6z M1556.5,1067c0,0-1188.3,0-1233.4,0
			c-110.8,0-243-18.5-275.5-31.7l-0.1,0h753c3.5,2.3,9.4,3.4,14,3.4h99.8h80.7h102.3c5,0,8.8-1.1,11.7-3.4h763.4
			C1844.4,1045.8,1741.1,1067,1556.5,1067z"/>
	</g>
	<rect x="286.1" y="87.5" class="st1" width="1350.5" height="844"/>
</g>
<g>
</g>
<g>
</g>
<g>
</g>
<g>
</g>
<g>
</g>
<g>
</g>
<g>
</g>
<g>
</g>
<g>
</g>
<g>
</g>
<g>
</g>
<g>
</g>
<g>
</g>
<g>
</g>
<g>
</g>
</svg>
