<?xml version="1.0" encoding="utf-8"?>
<!-- Generator: Adobe Illustrator 21.1.0, SVG Export Plug-In . SVG Version: 6.00 Build 0)  -->
<svg version="1.1" id="Layer_1" xmlns="http://www.w3.org/2000/svg" xmlns:xlink="http://www.w3.org/1999/xlink" x="0px" y="0px"
	 viewBox="0 0 501.8 376.8" style="enable-background:new 0 0 501.8 376.8;" xml:space="preserve">
<style type="text/css">
	.st0{fill:none;stroke:#3BA30D;stroke-width:2;stroke-miterlimit:10;}
</style>
<path class="st0" d="M500.8,313.3c0,11-3.1,21.1-8,30.1L334.9,166.8L491,30.3c6.1,9.6,9.8,21,9.8,33.2V313.3z M250.9,198.9
	l217.2-190C459.1,4,449.1,1,438.3,1H63.5C52.6,1,42.6,4,33.7,8.9L250.9,198.9z M311.4,187.4l-50.3,44c-2.9,2.6-6.6,3.8-10.3,3.8
	c-3.7,0-7.3-1.3-10.3-3.8l-50.3-44L30.5,366.2c9.6,6,20.8,9.6,32.9,9.6h374.8c12.1,0,23.4-3.6,32.9-9.6L311.4,187.4z M10.7,30.3
	C4.7,39.9,1,51.2,1,63.5v249.9c0,11,3.1,21.1,8,30.1l157.8-176.6L10.7,30.3z"/>
<g>
</g>
<g>
</g>
<g>
</g>
<g>
</g>
<g>
</g>
<g>
</g>
<g>
</g>
<g>
</g>
<g>
</g>
<g>
</g>
<g>
</g>
<g>
</g>
<g>
</g>
<g>
</g>
<g>
</g>
</svg>
