<?xml version="1.0" encoding="utf-8"?>
<!-- Generator: Adobe Illustrator 21.1.0, SVG Export Plug-In . SVG Version: 6.00 Build 0)  -->
<svg version="1.1" id="Layer_1" xmlns="http://www.w3.org/2000/svg" xmlns:xlink="http://www.w3.org/1999/xlink" x="0px" y="0px"
	 viewBox="0 0 1920 1080" style="enable-background:new 0 0 1920 1080;" xml:space="preserve">
<style type="text/css">
	.st0{fill:#FFFFFF;}
	.st1{opacity:0.1;fill:#FFFFFF;}
</style>
<g>
	<g>
		<path class="st0" d="M1325.1,22c-8.5-8.4-20-13.1-32.2-13.1h-667c-11.6,0-22.5,4.6-30.9,13.1c-8.4,8.5-13,19.7-13,31.5v980
			c0,24.6,21.6,44.6,48.1,44.6h660.2c12.8,0,24.8-4.6,33.7-13c9.2-8.7,14.3-20.6,14.3-33.7V53.6C1338.3,41.6,1333.7,30.4,1325.1,22z
			 M1334.9,1031.5c0,25.5-20.4,43.3-44.6,43.3H630.1c-24.7,0-44.7-18.5-44.7-41.2v-980c0-22.8,18.5-41.2,40.4-41.2h667
			c23.6,0,42,18.5,42,41.2V1031.5z"/>
		<path class="st0" d="M1292.9,17.5h-667c-9.3,0-18.1,3.8-24.8,10.6c-6.8,6.9-10.5,16-10.5,25.6v980c0,19.9,17.8,36.1,39.6,36.1
			h660.2c10.7,0,20.6-3.8,27.9-10.7c7.5-7,11.6-16.8,11.6-27.5V53.6c0-9.7-3.8-18.7-10.7-25.5C1312.3,21.2,1302.9,17.5,1292.9,17.5z
			 M1326.5,1031.5c0,9.7-3.7,18.6-10.5,25c-6.7,6.3-15.8,9.8-25.6,9.8H630.2c-20,0-36.2-14.7-36.2-32.7v-980c0-8.7,3.4-17,9.5-23.2
			c6.1-6.2,14-9.6,22.4-9.6h667c9.1,0,17.6,3.4,23.9,9.6c6.2,6.1,9.7,14.4,9.7,23.1V1031.5z"/>
		<path class="st0" d="M1286.3,104.5H634.4c-2.3,0-4.2,1.9-4.2,4.2v869.2c0,2.3,1.9,4.2,4.2,4.2h651.9c2.3,0,4.2-1.9,4.2-4.2V108.7
			C1290.6,106.4,1288.7,104.5,1286.3,104.5z M1286.3,977.9H634.4V108.7h651.9V977.9z"/>
		<path class="st0" d="M959.9,67.4c3.5,0,6.4-2.8,6.4-6.4c0-3.5-2.8-6.4-6.4-6.4c-3.5,0-6.4,2.8-6.4,6.4
			C953.6,64.5,956.4,67.4,959.9,67.4z M959.9,57.2c2.1,0,3.8,1.7,3.8,3.8c0,2.1-1.7,3.8-3.8,3.8c-2.1,0-3.8-1.7-3.8-3.8
			C956.1,58.9,957.8,57.2,959.9,57.2z"/>
		<ellipse class="st0" cx="941.7" cy="61.2" rx="3.4" ry="3.4"/>
		<path class="st0" d="M959.9,1003.6c-14.1,0-25.5,11.4-25.5,25.5c0,0.2,0,0.4,0,0.6c0.3,13.8,11.6,24.9,25.5,24.9
			c14.1,0,25.5-11.4,25.5-25.5C985.3,1015,973.9,1003.6,959.9,1003.6z M959.9,1051.1c-5.8,0-11.3-2.2-15.4-6.3
			c-4.1-4.1-6.5-9.5-6.6-15.3l0-0.2c0-0.1,0-0.2,0-0.3c0-12.2,9.9-22.1,22.1-22.1c12.2,0,22.1,9.9,22.1,22.1
			S972.1,1051.1,959.9,1051.1z"/>
		<path class="st0" d="M964.8,1019.1h-10.1c-2.4,0-4.3,1.9-4.3,4.3v10.1c0,2.4,1.9,4.3,4.3,4.3h10.1c2.4,0,4.3-1.9,4.3-4.3v-10.1
			C969.1,1021,967.2,1019.1,964.8,1019.1z M965.7,1033.4c0,0.5-0.4,0.9-0.9,0.9h-10.1c-0.5,0-0.9-0.4-0.9-0.9v-10.1
			c0-0.5,0.4-0.9,0.9-0.9h10.1c0.5,0,0.9,0.4,0.9,0.9V1033.4z"/>
	</g>
	<rect x="634.4" y="108.7" class="st1" width="651.9" height="869.2"/>
</g>
<g>
</g>
<g>
</g>
<g>
</g>
<g>
</g>
<g>
</g>
<g>
</g>
<g>
</g>
<g>
</g>
<g>
</g>
<g>
</g>
<g>
</g>
<g>
</g>
<g>
</g>
<g>
</g>
<g>
</g>
</svg>
