<?xml version="1.0" encoding="utf-8"?>
<!-- Generator: Adobe Illustrator 21.1.0, SVG Export Plug-In . SVG Version: 6.00 Build 0)  -->
<svg version="1.1" id="Layer_1" xmlns="http://www.w3.org/2000/svg" xmlns:xlink="http://www.w3.org/1999/xlink" x="0px" y="0px"
	 viewBox="0 0 1920 1080" style="enable-background:new 0 0 1920 1080;" xml:space="preserve">
<style type="text/css">
	.st0{fill:#FFFFFF;}
	.st1{opacity:0.1;fill:#FFFFFF;}
</style>
<g>
	<g>
		<path class="st0" d="M1591.1,4.8H329.2c-21.6,0-39.1,17.5-39.1,39.1v762.5v2.6v82.1c0,21.6,17.5,39.1,39.1,39.1h476.3
			c-1,16.6-3,39.3-5.5,60.9c-6.7,58.4-12,63.5-13,63.9c-4.8,2.1-19.4,4.3-32.3,6.3c-23.1,3.5-26.3,4.3-26.3,6.5v3.3
			c0,0.8,0,1.5,4.3,2.1c0,1.1,0,2.7,0,3.9c0,2.5,73.8,2.9,140.5,2.9c33.8,0,65.8-0.1,85.5-0.1c19.7,0,51.7,0.1,85.5,0.1
			c66.8,0,140.5-0.4,140.5-2.9c0-1.1,0-2.8,0-3.9c4.3-0.6,4.3-1.2,4.3-2.1v-3.3c0-2.2-3.2-3-26.3-6.5c-12.9-2-27.5-4.2-32.3-6.3
			c-1-0.4-6.2-5.5-13-63.9c-2.5-21.6-4.4-44.3-5.5-60.9h479.1c21.6,0,39.1-17.5,39.1-39.1V809v-2.6V43.9
			C1630.3,22.3,1612.7,4.8,1591.1,4.8z M1182.9,1075.8c-2.9,0.5-13.1,1.3-46.5,1.8c-22.4,0.3-52.5,0.5-92.1,0.5
			c-20.5,0-39.9,0-57.1-0.1c-10.9,0-20.6,0-28.4,0c-7.8,0-17.4,0-28.4,0c-17.2,0-36.6,0.1-57.1,0.1c-39.6,0-69.7-0.2-92.1-0.5
			c-33.4-0.5-43.6-1.3-46.5-1.8v-2.4c6,0.6,17.8,1,41.1,1.4c23.1,0.4,54.8,0.5,96.8,0.5c20.8,0,40.5,0,57.9-0.1
			c10.9,0,20.6,0,28.3,0c7.7,0,17.4,0,28.3,0c17.4,0,37.1,0.1,57.9,0.1c42.1,0,73.8-0.2,96.8-0.5c23.2-0.4,35.1-0.8,41.1-1.4V1075.8
			z M1115,991.4c7.2,62.8,12.7,65.2,14.5,66c5.1,2.2,19.3,4.4,33,6.5c9.8,1.5,21.8,3.3,24.1,4.5v2.1c-6.1,1.6-53.7,2.4-141.6,2.4
			c-20.8,0-40.5,0-57.9-0.1c-10.9,0-20.6,0-28.3,0c-7.7,0-17.4,0-28.3,0c-17.4,0-37.1,0.1-57.9,0.1c-87.9,0-135.5-0.8-141.6-2.4
			v-2.1c2.3-1.2,14.4-3,24.1-4.5c13.7-2.1,27.9-4.3,33-6.5c1.8-0.8,7.2-3.2,14.5-66c2.5-21.7,4.5-44.5,5.5-61.1h301.4
			C1110.5,946.9,1112.5,969.7,1115,991.4z M1627.7,891.1c0,20.2-16.4,36.6-36.6,36.6H329.2c-20.2,0-36.6-16.4-36.6-36.6V809h1335.1
			V891.1z M292.7,806.4V43.9c0-20.2,16.4-36.6,36.6-36.6h1261.9c20.2,0,36.6,16.4,36.6,36.6v762.5H292.7z"/>
		<path class="st0" d="M1572.8,58.4H347.5c-2.1,0-3.8,1.7-3.8,3.8v689.2c0,2.1,1.7,3.8,3.8,3.8h1225.3c2.1,0,3.8-1.7,3.8-3.8V62.2
			C1576.7,60.1,1574.9,58.4,1572.8,58.4z M1572.8,751.5H347.5V62.2h1225.3V751.5z"/>
		<path class="st0" d="M960.2,38.1c2.8,0,5.1-2.3,5.1-5.1c0-2.8-2.3-5.1-5.1-5.1c-2.8,0-5.1,2.3-5.1,5.1
			C955.1,35.8,957.4,38.1,960.2,38.1z M960.2,30.4c1.4,0,2.6,1.1,2.6,2.6c0,1.4-1.1,2.6-2.6,2.6c-1.4,0-2.6-1.1-2.6-2.6
			C957.6,31.6,958.8,30.4,960.2,30.4z"/>
	</g>
	<rect x="347.5" y="62.2" class="st1" width="1225.3" height="689.2"/>
</g>
<g>
</g>
<g>
</g>
<g>
</g>
<g>
</g>
<g>
</g>
<g>
</g>
<g>
</g>
<g>
</g>
<g>
</g>
<g>
</g>
<g>
</g>
<g>
</g>
<g>
</g>
<g>
</g>
<g>
</g>
</svg>
