<?xml version="1.0" encoding="utf-8"?>
<!-- Generator: Adobe Illustrator 21.0.0, SVG Export Plug-In . SVG Version: 6.00 Build 0)  -->
<svg version="1.1" xmlns="http://www.w3.org/2000/svg" xmlns:xlink="http://www.w3.org/1999/xlink" x="0px" y="0px"
	 viewBox="0 0 2998.2 2984.9" style="enable-background:new 0 0 2998.2 2984.9;" xml:space="preserve">
<style type="text/css">
	.st0{fill:none;stroke:#000200;stroke-miterlimit:10;}
</style>
<g id="Layer_39">
	<polygon class="st0" points="2162.9,903.4 2424.8,169.1 2851,216.5 2922.4,683.6 	"/>
</g>
<g id="Layer_40">
	<polygon class="st0" points="2866.2,1034.9 2424.8,169.1 1972.2,318.4 1663.9,707.6 	"/>
</g>
<g id="Layer_15">
	<polygon class="st0" points="2162.9,903.4 2526.2,1309.4 2866.2,1034.9 	"/>
</g>
<g id="Layer_16">
	<polygon class="st0" points="1891,1242.6 2162.9,903.4 1663.9,707.6 1294.8,474.6 1133.9,1061.7 	"/>
</g>
<g id="Layer_17">
	<polygon class="st0" points="1547,1160.4 1000.8,541.7 1972.2,318.4 	"/>
</g>
<g id="Layer_18">
	<polygon class="st0" points="1619.9,72.3 1972.2,318.4 1891,1242.6 1162.5,1502.4 599.2,713.2 1000.8,541.7 	"/>
</g>
<g id="Layer_19">
	<polygon class="st0" points="1211.1,779.9 599.2,713.2 68.3,362 730.2,74.9 918.6,1.1 	"/>
</g>
<g id="Layer_20">
	<polygon class="st0" points="599.2,713.2 730.2,74.9 1000.8,541.7 1133.9,1061.7 726.7,1478.7 	"/>
</g>
<g id="Layer_21">
	<polygon class="st0" points="68.3,362 195.6,1125.7 466.9,1562.6 599.2,713.2 394.6,923.6 	"/>
</g>
<g id="Layer_22">
	<polygon class="st0" points="599.2,713.2 350.9,1376.4 1162.5,1502.4 1133.9,1061.7 	"/>
</g>
<g id="Layer_23">
	<polygon class="st0" points="394.6,923.6 1.1,1323.2 164.9,2027.2 466.9,1562.6 	"/>
</g>
<g id="Layer_24">
	<polygon class="st0" points="466.9,1562.6 482.7,2883.9 947.1,2547.3 1263.5,1697.9 726.7,1478.7 	"/>
</g>
<g id="Layer_25">
	<polygon class="st0" points="164.9,2027.2 11.5,2568.3 183.8,2954.9 478.1,2501.2 1263.5,1697.9 	"/>
</g>
<g id="Layer_26">
	<polygon class="st0" points="1162.5,1502.4 2024.8,1428.8 2093.4,2093.8 1363.6,1889.6 	"/>
</g>
<g id="Layer_27">
	<polygon class="st0" points="1363.6,1889.6 947.1,2547.3 1526.6,2514.5 1939.2,2237.2 	"/>
</g>
<g id="Layer_28">
	<polygon class="st0" points="1939.2,2237.2 2093.4,2093.8 2455.8,2502.6 	"/>
</g>
<g id="Layer_29">
	<polygon class="st0" points="1526.6,2514.5 2026.3,2709 2455.8,2502.6 	"/>
</g>
<g id="Layer_30">
	<polygon class="st0" points="1939.2,2237.2 2026.3,2709 2299.7,2968.9 	"/>
</g>
<g id="Layer_31">
	<polygon class="st0" points="947.1,2547.3 1414,2902.1 2299.7,2968.9 	"/>
</g>
<g id="Layer_32">
	<polygon class="st0" points="482.7,2883.9 1087.7,2982 1414,2902.1 	"/>
</g>
<g id="Layer_33">
	<polygon class="st0" points="2299.7,2968.9 2455.8,2502.6 2997.1,2424.3 	"/>
</g>
<g id="Layer_34">
	<polygon class="st0" points="2859.4,2005.3 2455.8,2502.6 2881,2785.4 2997.1,2424.3 	"/>
</g>
<g id="Layer_35">
	<polygon class="st0" points="2526.2,1309.4 2455.8,2502.6 2360,1847.8 	"/>
</g>
<g id="Layer_36">
	<polygon class="st0" points="2526.2,1309.4 2859.4,2005.3 2980.7,1505.4 	"/>
</g>
<g id="Layer_37">
	<polygon class="st0" points="2093.4,2093.8 2859.4,2005.3 2360,1847.8 	"/>
</g>
<g id="Layer_38">
	<polygon class="st0" points="2360,1847.8 2024.8,1428.8 1891,1242.6 2717.3,742.9 2980.7,1505.4 	"/>
</g>
</svg>
