<?xml version="1.0" encoding="utf-8"?>
<!-- Generator: Adobe Illustrator 21.1.0, SVG Export Plug-In . SVG Version: 6.00 Build 0)  -->
<svg version="1.1" id="Layer_1" xmlns="http://www.w3.org/2000/svg" xmlns:xlink="http://www.w3.org/1999/xlink" x="0px" y="0px"
	 viewBox="0 0 5747.7 5717.1" style="enable-background:new 0 0 5747.7 5717.1;" xml:space="preserve">
<style type="text/css">
	.st0{fill:none;stroke:#DCDDDE;stroke-width:0.5;stroke-linejoin:round;stroke-miterlimit:10;}
</style>
<path class="st0" d="M4642.9,321.1l822.3,89.4l138.5,900.2l-406.8,124.1L4642.9,321.1z M4642.9,321.1L3783,609.6l-594.4,744.4
	l2296.8,623.2l-288.5-542.5L4642.9,321.1z M4642.9,321.1l-496.3,1408.1l1050.3-294.3L4642.9,321.1z M4146.6,1729.2l692.5,779.1
	l646.3-530.9L4146.6,1729.2z M4839.1,2508.3l640.6,1333.1l230.8-958l-225.1-906L4839.1,2508.3z M4839.1,2508.3l-317.4,1033
	l-807.9,744.4l167.4,906l825.2-398.2L4839.1,2508.3z M4521.7,3541.2l184.7,1252.3l773.3-952.2l-640.6-1333.1L4521.7,3541.2z
	 M4706.4,4793.5l1038.7-150l-265.5-802.1L4706.4,4793.5z M4706.4,4793.5L5520,5336l225.1-692.5L4706.4,4793.5z M4706.4,4793.5
	l-825.2,398.2l525.1,496.3l1341.1-1044.5L4706.4,4793.5z M4406.3,5688l300.1-894.5l-825.2,398.2L4406.3,5688z M5479.6,3841.3
	l-1471.6,167.4l698.3,784.8L5479.6,3841.3z M3881.1,5191.7l-963.7-375.1L2709.7,5561l1696.6,127L3881.1,5191.7z M2611,3618.6
	l-798.7,1261.5l1110.9-63.5l790.6-530.9L2611,3618.6z M2709.7,5561l-897.4-681l-891.6,646.3l1183,190.4L2709.7,5561z M2611,3618.6
	l-190.4-366.4l-608.2,1627.9L2611,3618.6z M1812.3,4880.1l608.2-1627.9l-1492.9,1520l-6.3,754.2L1812.3,4880.1z M4013.3,4014.4
	l-133.9-1278.8L2226.6,2877l384.3,741.6L4013.3,4014.4z M4839.1,2508.3l-692.5-779.1l-525.1,650.4l258,356.6l644,801.6
	L4839.1,2508.3z M3188.6,1354.1l-222.8,869.7l655.6,156.4L3188.6,1354.1z M3188.6,1354.1l-711.5-450.7l-307,1129.9l796.4,190.4
	L3188.6,1354.1z M3779,605.6l-1862.2,431.1l1050.9,1188.2L3779,605.6z M3779,605.6l-676.3-470.3l-1185.9,901.4L3779,605.6z
	 M3779,605.6L1758.6,0.2l-361.8,138.5l520,897.4L3779,605.6z M1916.7,1036.7l-520-897.9l-251.6,1225.1l1172.1,126.4L1916.7,1036.7z
	 M1396.8,138.7L127.2,689.9l1018,674L1396.8,138.7z M1145.2,1363.9l244.7,1468.7l780.2-799.8l147.7-543L1145.2,1363.9z
	 M1145.2,1363.9L687,2630.6l1540.2,247L1145.2,1363.9z M2420.5,3252.1l-1030.7-419.5L893,2990.1l34.6,1781.5L2420.5,3252.1z
	 M893,2990.7l-580,891l614.6,890.4L893,2990.7z M313,3881.7L19.9,4920.5l329.5,742.7l578.2-890.4L313,3881.7z M893,2990.7
	l-215.3-360.1l-305.9-469.2L0.2,2533.6l312.2,1348.1 M1145.2,1363.9l-1018-674l245.3,1471L1145.2,1363.9z"/>
</svg>
