<?xml version="1.0" encoding="utf-8"?>
<!-- Generator: Adobe Illustrator 21.0.0, SVG Export Plug-In . SVG Version: 6.00 Build 0)  -->
<svg version="1.1" xmlns="http://www.w3.org/2000/svg" xmlns:xlink="http://www.w3.org/1999/xlink" x="0px" y="0px"
	 viewBox="0 0 1998.2 1988.3" style="enable-background:new 0 0 1998.2 1988.3;" xml:space="preserve">
<g id="Layer_34">
	<g>
		<path d="M630.4,1697.4c0,0-0.1,0-0.1,0c-0.1-0.1-0.2-0.2-0.1-0.3L841.7,1131c0-0.1,0.1-0.2,0.2-0.2c0.1,0,0.2,0,0.2,0.1
			l66.1,127.4c0,0.1,0,0.2,0,0.2l-277.7,438.6C630.6,1697.4,630.5,1697.4,630.4,1697.4z M842,1131.7L631.5,1695l276.3-436.5
			L842,1131.7z"/>
	</g>
</g>
<g id="Layer_33">
	<g>
		<path d="M630.4,1697.4c-0.1,0-0.2,0-0.2-0.1c0-0.1,0-0.2,0-0.3l277.7-438.7c0.1-0.1,0.2-0.2,0.3-0.1l383.5,232
			c0.1,0,0.1,0.1,0.1,0.2c0,0.1,0,0.2-0.1,0.2l-274.9,184.6c0,0-0.1,0-0.1,0L630.4,1697.4C630.4,1697.4,630.4,1697.4,630.4,1697.4z
			 M908.2,1258.9l-277.3,438l385.7-22l274.5-184.4L908.2,1258.9z"/>
	</g>
</g>
<g id="Layer_32">
	<g>
		<path d="M1532.4,1978.3C1532.4,1978.3,1532.4,1978.3,1532.4,1978.3l-590-44.2c-0.1,0-0.1,0-0.2-0.1c0-0.1-0.1-0.1,0-0.2
			l74.2-258.8c0-0.1,0.1-0.1,0.1-0.2c0.1,0,0.1,0,0.2,0l333.1,130.4c0,0,0.1,0,0.1,0.1l182.7,172.6c0.1,0.1,0.1,0.2,0.1,0.3
			C1532.6,1978.3,1532.5,1978.3,1532.4,1978.3z M942.8,1933.7l589,44.1l-182.1-172.1l-332.8-130.3L942.8,1933.7z"/>
	</g>
</g>
<g id="Layer_31">
	<g>
		<path d="M1532.4,1978.3c-0.1,0-0.1,0-0.2-0.1l-182.6-172.5c-0.1-0.1-0.1-0.1-0.1-0.2s0.1-0.2,0.1-0.2l287-138.5c0.1,0,0.2,0,0.3,0
			c0.1,0.1,0.1,0.2,0.1,0.3l-104.4,311C1532.6,1978.3,1532.6,1978.3,1532.4,1978.3C1532.5,1978.3,1532.4,1978.3,1532.4,1978.3z
			 M1350.2,1805.6l182.1,172l104-310.1L1350.2,1805.6z"/>
	</g>
</g>
<g id="Layer_30">
	<g>
		<path d="M1532.4,1978.4c-0.1,0-0.1,0-0.2-0.1l-182.6-172.6c-0.1-0.1-0.1-0.1-0.1-0.2s0.1-0.2,0.1-0.2l287-138.5c0,0,0,0,0.1,0
			l361.2-52.2c0.1,0,0.2,0,0.3,0.1c0,0.1,0,0.2-0.1,0.3l-465.6,363.3C1532.5,1978.4,1532.4,1978.4,1532.4,1978.4z M1350.2,1805.6
			l182.2,172.2l464.7-362.5l-360.2,52.1L1350.2,1805.6z"/>
	</g>
</g>
<g id="Layer_29">
	<g>
		<path d="M1919.7,1856c0,0-0.1,0-0.1,0l-282.9-188.7c-0.1-0.1-0.1-0.2-0.1-0.3c0-0.1,0.1-0.2,0.2-0.2l361.2-52.2
			c0.1,0,0.2,0,0.2,0.1c0.1,0.1,0.1,0.2,0,0.2l-78.3,240.9C1919.9,1855.9,1919.8,1856,1919.7,1856
			C1919.7,1856,1919.7,1856,1919.7,1856z M1637.5,1667.3l282.1,188.1l78-240.2L1637.5,1667.3z"/>
	</g>
</g>
<g id="Layer_28">
	<g>
		<path d="M1636.8,1667.3c-0.1,0-0.2,0-0.2-0.1c-0.1-0.1,0-0.2,0-0.3l268.9-331.1c0.1-0.1,0.1-0.1,0.2-0.1c0.1,0,0.2,0.1,0.2,0.2
			l92.3,278.9c0,0.1,0,0.1,0,0.2c0,0.1-0.1,0.1-0.2,0.1L1636.8,1667.3C1636.8,1667.3,1636.8,1667.3,1636.8,1667.3z M1905.5,1336.5
			l-268.2,330.3l360.3-52.1L1905.5,1336.5z"/>
	</g>
</g>
<g id="Layer_27">
	<g>
		<path d="M1636.8,1667.3c-0.1,0-0.1,0-0.2-0.1l-241.8-271.8c-0.1-0.1-0.1-0.2,0-0.3s0.1-0.1,0.2-0.2l510.7-59.4
			c0.1,0,0.2,0,0.2,0.1c0,0.1,0,0.2,0,0.3L1637,1667.2C1636.9,1667.3,1636.8,1667.3,1636.8,1667.3
			C1636.8,1667.3,1636.8,1667.3,1636.8,1667.3z M1395.5,1395.5l241.3,271.2l268.3-330.4L1395.5,1395.5z"/>
	</g>
</g>
<g id="Layer_26">
	<g>
		<path d="M1349.8,1805.7c0,0-0.1,0-0.1,0c-0.1,0-0.1-0.1-0.1-0.2l-58.2-315c0-0.1,0-0.2,0.1-0.2l280.9-258.8l110.4-359.2
			c0-0.1,0.2-0.2,0.3-0.2c0.1,0,0.2,0.1,0.2,0.3l-46.2,794.6c0,0.1-0.1,0.2-0.1,0.2l-287,138.5
			C1349.9,1805.7,1349.8,1805.7,1349.8,1805.7z M1291.9,1490.6l58.1,314.5l286.6-138.3l46-792.4l-109.8,357.2c0,0,0,0.1-0.1,0.1
			L1291.9,1490.6z"/>
	</g>
</g>
<g id="Layer_25">
	<g>
		<path d="M1395,1395.5C1394.9,1395.5,1394.9,1395.5,1395,1395.5L908,1258.8c-0.1,0-0.1-0.1-0.2-0.1l-133.6-257.9c0-0.1,0-0.2,0-0.2
			c0-0.1,0.1-0.1,0.2-0.1l574.8-49.2c0.2,0,0.3,0.1,0.3,0.2l45.7,443.9c0,0.1,0,0.2-0.1,0.2C1395.1,1395.5,1395,1395.5,1395,1395.5z
			 M908.3,1258.3l486.4,136.7L1349,951.7l-574.2,49.1L908.3,1258.3z"/>
	</g>
</g>
<g id="Layer_24">
	<g>
		<path d="M1636.8,1667.3C1636.7,1667.3,1636.7,1667.3,1636.8,1667.3c-0.2,0-0.2-0.1-0.2-0.2l-64.2-435.5c0,0,0-0.1,0-0.1
			l110.4-359.3c0-0.1,0.1-0.2,0.2-0.2c0.1,0,0.2,0,0.2,0.1l222.7,463.6c0,0.1,0,0.2,0,0.3L1637,1667.3
			C1636.9,1667.3,1636.8,1667.3,1636.8,1667.3z M1572.8,1231.6l64.1,434.9l268.4-330.5L1683,873.1L1572.8,1231.6z"/>
	</g>
</g>
<g id="Layer_23">
	<g>
		<path d="M1905.7,1336.2c-0.1,0-0.2-0.1-0.2-0.1l-222.8-463.6c0-0.1,0-0.2,0.1-0.3l224.7-184.6c0.1-0.1,0.2-0.1,0.2,0
			c0.1,0,0.1,0.1,0.2,0.2l78.3,315c0,0,0,0.1,0,0.1L1906,1336C1905.9,1336.1,1905.9,1336.2,1905.7,1336.2
			C1905.7,1336.2,1905.7,1336.2,1905.7,1336.2z M1683.3,872.5l222.4,462.8l80.1-332.4l-78.2-314.6L1683.3,872.5z"/>
	</g>
</g>
<g id="Layer_22">
	<g>
		<path d="M1572.5,1231.9c-0.1,0-0.1,0-0.2-0.1l-223.3-280l-89.7-124c-0.1-0.1-0.1-0.2,0-0.3l182.6-226.1c0-0.1,0.1-0.1,0.2-0.1
			c0.1,0,0.1,0,0.2,0.1l240.9,270.9c0.1,0.1,0.1,0.2,0.1,0.2l-110.4,359.2C1572.8,1231.8,1572.7,1231.9,1572.5,1231.9
			C1572.6,1231.9,1572.6,1231.9,1572.5,1231.9z M1259.8,827.6l89.6,123.8l223,279.6l110.2-358.6l-240.6-270.6L1259.8,827.6z"/>
	</g>
</g>
<g id="Layer_21">
	<g>
		<path d="M1683,872.7c-0.1,0-0.1,0-0.2-0.1l-240.9-270.9c-0.1-0.1-0.1-0.2,0-0.3c0.1-0.1,0.2-0.1,0.3-0.1l465.6,86.3
			c0.1,0,0.2,0.1,0.2,0.2s0,0.2-0.1,0.3l-224.7,184.6C1683.1,872.6,1683,872.7,1683,872.7z M1442.8,601.9L1683,872.1l224.1-184.1
			L1442.8,601.9z"/>
	</g>
</g>
<g id="Layer_20">
	<g>
		<path d="M1442.1,601.7c-0.1,0-0.1,0-0.2-0.1c-0.1-0.1-0.1-0.2-0.1-0.3l172.6-489.6c0-0.1,0.1-0.2,0.2-0.2c0.1,0,0.2,0,0.2,0.1
			L1807.6,499c0,0.1,0,0.1,0,0.2c0,0.1-0.1,0.1-0.2,0.1L1442.1,601.7C1442.1,601.7,1442.1,601.7,1442.1,601.7z M1614.7,112.5
			l-172.2,488.6L1807,499L1614.7,112.5z"/>
	</g>
</g>
<g id="Layer_19">
	<g>
		<path d="M1807.3,499.3c-0.1,0-0.2-0.1-0.2-0.1L1614.5,112c0-0.1,0-0.2,0-0.3c0.1-0.1,0.1-0.1,0.2-0.1l285.9,31.1
			c0.1,0,0.2,0.1,0.2,0.2l48.2,313c0,0.1-0.1,0.2-0.2,0.3L1807.3,499.3C1807.4,499.3,1807.4,499.3,1807.3,499.3z M1615.1,112.1
			l192.3,386.6l141-43l-48.1-312.6L1615.1,112.1z"/>
	</g>
</g>
<g id="Layer_18">
	<g>
		<path d="M1259.5,828.1C1259.5,828.1,1259.4,828.1,1259.5,828.1l-228.1-54.4c-0.1,0-0.1-0.1-0.2-0.1c0-0.1,0-0.1,0-0.2l77.5-302.4
			c0-0.1,0.1-0.2,0.2-0.2c0.1,0,0.2,0.1,0.2,0.2l150.5,356.8c0,0.1,0,0.2,0,0.3C1259.6,828.1,1259.6,828.1,1259.5,828.1z
			 M1031.8,773.3l227.3,54.2l-150-355.7L1031.8,773.3z"/>
	</g>
</g>
<g id="Layer_17">
	<g>
		<path d="M1907.6,688C1907.6,688,1907.6,688,1907.6,688l-798.7-216.7c-0.1,0-0.1-0.1-0.2-0.2c0-0.1,0-0.2,0-0.2l205.3-260.2
			c0,0,0.1-0.1,0.1-0.1l300.4-98.9c0.1,0,0.2,0,0.3,0.1L1807.6,499l100.3,188.6c0,0.1,0,0.2,0,0.3
			C1907.8,687.9,1907.7,688,1907.6,688z M1109.4,470.9l797.8,216.5l-100-188.1l-192.5-387.1L1314.4,211L1109.4,470.9z"/>
	</g>
</g>
<g id="Layer_16">
	<g>
		<path d="M1031.7,773.7C1031.7,773.7,1031.7,773.7,1031.7,773.7l-277-66.2c-0.1,0-0.1-0.1-0.2-0.1c0-0.1,0-0.1,0-0.2l107.5-391.8
			c0-0.1,0.1-0.1,0.2-0.2c0.1,0,0.2,0,0.2,0l246.6,155.7c0.1,0.1,0.1,0.2,0.1,0.3L1032,773.5C1032,773.6,1031.9,773.7,1031.7,773.7z
			 M755.1,707l276.4,66.1l77.1-302L862.5,315.8L755.1,707z"/>
	</g>
</g>
<g id="Layer_15">
	<g>
		<path d="M1032.2,774.1c-0.1,0-0.1,0-0.2-0.1L666.5,360.6c-0.1-0.1-0.1-0.2-0.1-0.2s0.1-0.1,0.2-0.2l647.5-149.7
			c0.1,0,0.2,0,0.3,0.1c0.1,0.1,0.1,0.2,0,0.3L1032.4,774C1032.3,774,1032.3,774.1,1032.2,774.1
			C1032.2,774.1,1032.2,774.1,1032.2,774.1z M667.2,360.6l364.9,412.8l281.7-562.3L667.2,360.6z"/>
	</g>
</g>
<g id="Layer_2">
	<g>
		<path d="M398.4,474.7c0,0-0.1,0-0.1,0l-354-234.4c-0.1-0.1-0.1-0.1-0.1-0.2s0.1-0.2,0.1-0.2L485.8,48.2c0.1,0,0.2,0,0.3,0
			c0.1,0.1,0.1,0.2,0.1,0.2l-87.5,426C398.6,474.6,398.6,474.6,398.4,474.7C398.5,474.7,398.5,474.7,398.4,474.7z M44.9,240.1
			L398.2,474l87.3-425.2L44.9,240.1z"/>
	</g>
</g>
<g id="Layer_3">
	<g>
		<path d="M129.7,751.9C129.7,751.9,129.7,751.9,129.7,751.9c-0.2,0-0.2-0.1-0.2-0.2L44.2,240.1c0-0.1,0-0.2,0.1-0.3
			c0.1-0.1,0.2-0.1,0.3,0l354,234.4c0.1,0,0.1,0.1,0.1,0.2c0,0.1,0,0.1-0.1,0.2L129.9,751.8C129.8,751.9,129.8,751.9,129.7,751.9z
			 M44.8,240.6l85.1,510.5L398,474.5L44.8,240.6z"/>
	</g>
</g>
<g id="Layer_4">
	<g>
		<path d="M108.6,1350L0,881.3c0-0.1,0-0.2,0.1-0.2l129.5-129.6c0.1-0.1,0.1-0.1,0.2-0.1c0.1,0,0.1,0,0.2,0.1L236,914.8l74.9,125.2
			l-0.4,0.3l-74.9-125.2l-106-163L0.5,881.3l108.5,468.6L108.6,1350z"/>
	</g>
</g>
<g id="Layer_5">
	<g>
		<path d="M322.7,1659.9c-0.1,0-0.2,0-0.2-0.1l-213.7-309.6c-0.1-0.1-0.1-0.2,0-0.3L310.5,1040c0.1-0.1,0.2-0.1,0.3-0.1
			c0.1,0,0.2,0.1,0.2,0.2l12,619.5C323,1659.7,322.9,1659.8,322.7,1659.9C322.8,1659.9,322.8,1659.9,322.7,1659.9z M109.3,1350
			l213.2,308.8l-12-617.9L109.3,1350z"/>
	</g>
</g>
<g id="Layer_6">
	<g>
		<path d="M121.7,1969.7C121.7,1969.7,121.7,1969.7,121.7,1969.7c-0.1,0-0.2-0.1-0.2-0.1L6.9,1711.3c0-0.1,0-0.1,0-0.2l101.9-361.2
			c0-0.1,0.1-0.2,0.2-0.2c0.1,0,0.2,0,0.2,0.1l213.7,309.6c0.1,0.1,0.1,0.2,0,0.3l-201.1,309.8
			C121.8,1969.7,121.8,1969.7,121.7,1969.7z M7.4,1711.2l114.4,257.8l200.7-309.3l-213.3-309.1L7.4,1711.2z"/>
	</g>
</g>
<g id="Layer_7">
	<g>
		<path d="M731.8,1988.3C731.7,1988.3,731.7,1988.3,731.8,1988.3l-411.4-66.2c-0.1,0-0.2-0.1-0.2-0.2c0-0.1,0-0.2,0.1-0.3l310-224.7
			c0.1-0.1,0.2-0.1,0.3,0l312,236.8c0.1,0.1,0.1,0.2,0.1,0.2c0,0.1-0.1,0.2-0.2,0.2L731.8,1988.3
			C731.8,1988.3,731.8,1988.3,731.8,1988.3z M321,1921.7l410.7,66.1l210.1-54l-311.5-236.4L321,1921.7z"/>
	</g>
</g>
<g id="Layer_8">
	<g>
		<path d="M320.5,1922.1c0,0-0.1,0-0.1,0c-0.1,0-0.1-0.1-0.1-0.2l2.2-262.3c0-0.1,0-0.1,0.1-0.2l519.1-528.5c0.1-0.1,0.2-0.1,0.3,0
			c0.1,0.1,0.1,0.2,0.1,0.3l-211.5,566.1c0,0,0,0.1-0.1,0.1l-309.8,224.7C320.7,1922.1,320.6,1922.1,320.5,1922.1z M323,1659.7
			l-2.2,261.7L630.2,1697l211.1-564.9L323,1659.7z"/>
	</g>
</g>
<g id="Layer_9">
	<g>
		<path d="M322.7,1659.7C322.7,1659.7,322.6,1659.7,322.7,1659.7c-0.2-0.1-0.2-0.1-0.2-0.2l-12-619.5c0-0.1,0.1-0.2,0.2-0.2
			l172.8-54.8c0.1,0,0.1,0,0.2,0L842,1130.8c0.1,0,0.1,0.1,0.2,0.2c0,0.1,0,0.2-0.1,0.2l-519.2,528.4
			C322.8,1659.7,322.8,1659.7,322.7,1659.7z M311,1040.1l12,618.7l518.5-527.7l-358-145.6L311,1040.1z"/>
	</g>
</g>
<g id="Layer_10">
	<g>
		<path d="M774.7,1001.1C774.6,1001.1,774.6,1001.1,774.7,1001.1L237,917.2c-0.1,0-0.1-0.1-0.2-0.1s0-0.1,0-0.2l161.4-442.5
			c0-0.1,0.1-0.1,0.2-0.2c0.1,0,0.2,0,0.2,0.1l376.2,526.4c0.1,0.1,0.1,0.2,0,0.3C774.8,1001,774.7,1001.1,774.7,1001.1z
			 M237.4,916.7l536.7,83.8L398.5,474.9L237.4,916.7z"/>
	</g>
</g>
<g id="Layer_11">
	<g>
		<path d="M483.5,985.4C483.5,985.4,483.4,985.4,483.5,985.4c-0.2,0-0.2-0.1-0.2-0.2l-85.1-510.7c0-0.1,0-0.2,0.1-0.2
			c0.1-0.1,0.1-0.1,0.2-0.1l407.8,43.8c0.1,0,0.1,0,0.2,0.1c0,0.1,0.1,0.1,0,0.2L755,707.1c0,0,0,0.1-0.1,0.1L483.7,985.3
			C483.6,985.4,483.6,985.4,483.5,985.4z M398.7,474.7l85,509.9l270.9-277.7l51.3-188.5L398.7,474.7z"/>
	</g>
</g>
<g id="Layer_12">
	<g>
		<path d="M806,518.7C805.9,518.7,805.9,518.7,806,518.7l-407.6-44c-0.1,0-0.1,0-0.2-0.1c0-0.1-0.1-0.1,0-0.2l87.5-426
			c0-0.1,0.1-0.2,0.2-0.2c0.1,0,0.2,0,0.3,0.1l180.8,312l139.2,158c0.1,0.1,0.1,0.2,0,0.3C806.1,518.7,806,518.7,806,518.7z
			 M398.7,474.3l406.7,43.9L666.5,360.6c0,0,0,0,0,0L486,49.2L398.7,474.3z"/>
	</g>
</g>
<g id="Layer_13">
	<g>
		<path d="M666.7,360.7c-0.1,0-0.2,0-0.2-0.1L485.7,48.5c0-0.1,0-0.1,0-0.2c0-0.1,0.1-0.1,0.1-0.1L611.6,0c0.1,0,0.1,0,0.2,0
			l702.5,210.5c0.1,0,0.2,0.1,0.2,0.2s-0.1,0.2-0.2,0.2L666.7,360.7C666.8,360.7,666.7,360.7,666.7,360.7z M486.3,48.5l180.6,311.6
			l646.4-149.4L611.7,0.5L486.3,48.5z"/>
	</g>
</g>
<g id="Layer_14">
	<g>
		<path d="M666.7,360.7c-0.1,0-0.2-0.1-0.2-0.1c0-0.1,0-0.2,0.1-0.3L1078.9,47c0.1-0.1,0.2-0.1,0.3,0l235.2,163.5
			c0.1,0.1,0.1,0.2,0.1,0.3c0,0.1-0.1,0.2-0.2,0.2L666.7,360.7C666.8,360.7,666.7,360.7,666.7,360.7z M1079.1,47.5L667.8,360
			l645.9-149.3L1079.1,47.5z"/>
	</g>
</g>
</svg>
