<?xml version="1.0" encoding="utf-8"?>
<!-- Generator: Adobe Illustrator 21.1.0, SVG Export Plug-In . SVG Version: 6.00 Build 0)  -->
<svg version="1.1" id="Layer_1" xmlns="http://www.w3.org/2000/svg" xmlns:xlink="http://www.w3.org/1999/xlink" x="0px" y="0px"
	 viewBox="0 0 1920 1080" style="enable-background:new 0 0 1920 1080;" xml:space="preserve">
<style type="text/css">
	.st0{fill:none;stroke:#DCDDDE;stroke-width:0.5;stroke-linejoin:round;stroke-miterlimit:10;}
</style>
<path class="st0" d="M1280.1,99.8l142.5,15.5l24,156l-70.5,21.5L1280.1,99.8z M1280.1,99.8l-149,50l-103,129l398,108l-50-94
	L1280.1,99.8z M1280.1,99.8l-86,244l182-51L1280.1,99.8z M1194.1,343.8l120,135l112-92L1194.1,343.8z M1314.1,478.8l111,231l40-166
	l-39-157L1314.1,478.8z M1314.1,478.8l-55,179l-140,129l29,157l143-69L1314.1,478.8z M1259.1,657.8l32,217l134-165l-111-231
	L1259.1,657.8z M1291.1,874.8l180-26l-46-139L1291.1,874.8z M1291.1,874.8l141,94l39-120L1291.1,874.8z M1291.1,874.8l-143,69l91,86
	l232.4-181L1291.1,874.8z M1239.1,1029.8l52-155l-143,69L1239.1,1029.8z M1425.1,709.8l-255,29l121,136L1425.1,709.8z M1148.1,943.8
	l-167-65l-36,129l294,22L1148.1,943.8z M928,671.2L789.6,889.8l192.5-11l137-92L928,671.2z M945.1,1007.8l-155.5-118l-154.5,112
	l205,33L945.1,1007.8z M928,671.2l-33-63.5L789.6,889.8L928,671.2z M789.6,889.8L895,607.7L636.3,871.1l-1.1,130.7L789.6,889.8z
	 M1171,739.8l-23.2-221.6l-286.4,24.5L928,671.2L1171,739.8z M1314.1,478.8l-120-135l-91,112.7l44.7,61.8l111.6,138.9L1314.1,478.8z
	 M1028.1,278.8l-38.6,150.7l113.6,27.1L1028.1,278.8z M1028.1,278.8l-123.3-78.1l-53.2,195.8l138,33L1028.1,278.8z M1130.4,149.1
	l-322.7,74.7l182.1,205.9L1130.4,149.1z M1130.4,149.1l-117.2-81.5L807.7,223.8L1130.4,149.1z M1130.4,149.1L780.3,44.2l-62.7,24
	l90.1,155.5L1130.4,149.1z M807.7,223.8L717.6,68.2L674,280.5l203.1,21.9L807.7,223.8z M717.6,68.2l-220,95.5L674,280.5L717.6,68.2z
	 M674,280.5L716.4,535l135.2-138.6l25.6-94.1L674,280.5z M674,280.5L594.6,500l266.9,42.8L674,280.5z M895,607.7L716.4,535
	l-86.1,27.3l6,308.7L895,607.7z M630.3,562.4L529.8,716.8l106.5,154.3L630.3,562.4z M529.8,716.8l-50.8,180l57.1,128.7l100.2-154.3
	L529.8,716.8z M630.3,562.4L593,500l-53-81.3l-64.4,64.5l54.1,233.6 M674,280.5L497.6,163.7l42.5,254.9L674,280.5z"/>
<g>
</g>
<g>
</g>
<g>
</g>
<g>
</g>
<g>
</g>
<g>
</g>
<g>
</g>
<g>
</g>
<g>
</g>
<g>
</g>
<g>
</g>
<g>
</g>
<g>
</g>
<g>
</g>
<g>
</g>
</svg>
