<?xml version="1.0" encoding="utf-8"?>
<!-- Generator: Adobe Illustrator 21.1.0, SVG Export Plug-In . SVG Version: 6.00 Build 0)  -->
<svg version="1.1" xmlns="http://www.w3.org/2000/svg" xmlns:xlink="http://www.w3.org/1999/xlink" x="0px" y="0px"
	 viewBox="0 0 2998.2 2984.9" style="enable-background:new 0 0 2998.2 2984.9;" xml:space="preserve">
<style type="text/css">
	.st0{fill:none;stroke:#FF0000;stroke-width:2;stroke-miterlimit:10;}
</style>
<g id="Layer_2_1_">
	<polyline class="st0" points="183.8,2954.9 485.7,2489.5 1263.5,1697.9 1363.6,1889.6 2093.4,2093.8 2859.4,2005.3 2980.7,1505.4 
		2863.3,1032.6 2711.9,749.6 2924,684.7 2852.3,215.1 2423.4,169.8 1971.3,317.1 1619.9,72.3 1000.8,541.7 730.2,74.9 918.6,1.1 
		1971.3,317.1 1548.1,1161.6 1133.9,1061.7 726.7,1478.7 599.2,713.2 68.3,362 	"/>
	<path class="st0" d="M2423.4,169.8"/>
</g>
<g id="Layer_3_1_">
	<polyline class="st0" points="2863.3,1032.6 2526.2,1309.4 2360,1847.8 2024.8,1428.8 1891,1242.6 2164.4,903.9 2423.4,169.8 	"/>
</g>
<g id="Layer_4_1_">
	<polyline class="st0" points="2526.2,1309.4 2164.4,903.9 2711.9,749.6 	"/>
</g>
<g id="Layer_5_1_">
	<polyline class="st0" points="2164.4,903.9 2863.3,1032.6 1664.8,707.5 1971.3,317.1 1000.8,541.7 1210.5,778.6 1133.9,1061.7 	"/>
	<polyline class="st0" points="2997.1,2424.3 2455.8,2502.6 2859.4,2005.3 2526.2,1309.4 2455.8,2502.6 2881,2785.4 	"/>
</g>
<g id="Layer_6_1_">
	<polyline class="st0" points="2881,2785.4 2997.1,2424.3 2859.4,2005.3 	"/>
</g>
<g id="Layer_7_1_">
	<line class="st0" x1="2423.4" y1="169.8" x2="2711.9" y2="749.6"/>
	<polyline class="st0" points="68.3,362 730.2,74.9 599.2,713.2 1210.5,778.6 1548.1,1161.6 1891,1242.6 1664.8,707.5 
		1548.1,1161.6 	"/>
	<polyline class="st0" points="1664.8,707.5 1294.8,474.6 1210.5,778.6 	"/>
</g>
<g id="Layer_8_1_">
	<polyline class="st0" points="466.9,1562.6 726.7,1478.7 1263.5,1697.9 947.1,2547.3 1414,2902.1 1098.9,2983.9 482.7,2883.9 
		485.7,2489.5 164.9,2027.2 1.1,1323.2 196,1127.8 599.2,713.2 356.3,1376.6 1162.5,1502.4 2024.8,1428.8 2093.4,2093.8 
		2360,1847.8 2455.8,2502.6 	"/>
</g>
<g id="Layer_9_1_">
	<polyline class="st0" points="183.8,2954.9 11.5,2568.3 164.9,2027.2 466.9,1562.6 356.3,1376.6 196,1127.8 68.3,362 	"/>
</g>
<g id="Layer_10_1_">
	<line class="st0" x1="485.7" y1="2489.5" x2="466.9" y2="1562.6"/>
</g>
<g id="Layer_11_1_">
	<polyline class="st0" points="599.2,713.2 1162.5,1502.4 1263.5,1697.9 	"/>
	<polyline class="st0" points="482.7,2883.9 947.1,2547.3 1363.6,1889.6 1939.2,2237.2 2093.4,2093.8 2455.8,2502.6 	"/>
</g>
<g id="Layer_12_1_">
	<polyline class="st0" points="2984.5,2434.8 2299.7,2968.9 2455.8,2502.6 2026.3,2709 1939.2,2237.2 1526.6,2514.5 1414,2902.1 	
		"/>
	<polyline class="st0" points="1414,2902.1 2299.7,2968.9 2026.3,2709 1526.6,2514.5 947.1,2547.3 	"/>
</g>
</svg>
