<svg id="Layer_1" data-name="Layer 1" xmlns="http://www.w3.org/2000/svg" viewBox="0 0 1998.21 1988.33"><defs><style>.cls-1{fill:none;stroke:#000;stroke-linejoin:round;stroke-width:0.5px;}</style></defs><title>wrapper</title><path class="cls-1" d="M1616.73,116.21l285.94,31.09,48.16,313-141.46,43.15Zm0,0-300.41,98.93L1111,475.38l798.68,216.71L1809.37,503.45Zm0,0L1444.14,605.86l365.23-102.34ZM1444.14,605.86,1685,876.78l224.74-184.61ZM1685,876.78l222.76,463.57L1988,1007.21l-78.28-315Zm0,0L1574.58,1236l-280.94,258.85,58.21,315,287-138.47ZM1574.58,1236l64.23,435.47,268.9-331.11L1685,876.74Zm64.23,435.47L2000,1619.26l-92.32-278.92Zm0,0,282.92,188.65L2000,1619.26Zm0,0-287,138.47,182.6,172.58L2000,1619.26Zm-104.36,311,104.36-311-287,138.47Zm373.22-642.16L1397,1399.67l241.8,271.75Zm-555.86,469.58-333.1-130.44-74.24,258.85,590,44.16Zm-441.66-547L632.42,1701.54l386.3-22.08,274.92-184.61Zm34.32,675.44L632.42,1701.5l-310,224.74,411.37,66.21Zm-34.32-675.44L844,1135.46,632.46,1701.54ZM632.42,1701.54l211.49-566.08L324.78,1664l-2.19,262.26ZM1397,1399.67l-45.74-443.85L776.49,1005l133.63,257.88Zm288-522.89L1444.14,605.86,1261.55,832l89.72,124,223.32,280ZM1111,475.42l-77.48,302.43,228,54.39Zm0,0L864.37,319.76,756.84,711.6l276.94,66.21Zm205.3-260.28L668.76,364.84,1034.2,778.23Zm0,0L1081.14,51.6,668.76,364.84Zm0,0L613.75,4.62,487.94,52.78,668.76,364.84ZM668.76,364.84l-180.86-312-87.49,426,407.58,44ZM487.94,52.78,46.46,244.45l354,234.37Zm-87.49,426,85.09,510.72,271.3-278.12,51.36-188.82Zm0,0L239.07,921.3l537.63,83.9Zm443.47,656.59L485.51,989.55l-172.76,54.77,12,619.49Zm-531.17-90.9L111.06,1354.36,324.78,1664ZM111.06,1354.36,9.14,1715.58l114.58,258.26L324.78,1664Zm201.69-309.83L237.88,919.3,131.75,756,2.29,885.57l108.56,468.78M400.45,478.83l-354-234.37L131.75,756Z" transform="translate(-2.04 -4.37)"/></svg>